# xmcd
#
# Track frame offsets:
#	150
#	19243
#	35939
#	52568
#	72632
#	86877
#	105097
#	129712
#	145505
#	161650
#	175752
#	192546
#	212009
#	228720
#	249540
#	267720
#	288512
#
# Disc length: 4056 seconds
#
# Revision: 1
# Processed by: cddbd v1.5.2PL0 Copyright (c) Steve Scherf et al.
# Submitted via: audiograbber 1.82.02
#
DISCID=020fd611
DTITLE=Various Artist - CB50701
DYEAR=2006
DGENRE=Karaoke
TTITLE0=Brad Paisley - The World
TTITLE1=Kenny Chesney - Living In Fast Forward
TTITLE2=George Strait - Give It Away
TTITLE3=Keith Urban - Tonight I Wanna Cry
TTITLE4=Toby Keith - Get Drunk And Be Somebody
TTITLE5=Craig Morgan - Little Bit Of Life
TTITLE6=Big and Rich - 8th Of November
TTITLE7=Chris Young - Drinkin' Me Lonely
TTITLE8=Kenny Rogers - I Can't Unlove You
TTITLE9=Jake Owen - YeeHaw
TTITLE10=Rascal Flatts - What Hurts The Most
TTITLE11=Little Big Town - Bring It On Home
TTITLE12=Heartland - I Loved Her First
TTITLE13=Keith Anderson - Every Time I Hear Your Name
TTITLE14=Josh Turner - Would You Go With Me
TTITLE15=Jason M Carroll - Alyssa Lies
TTITLE16=Jason Aldean - Why
EXTD=
EXTT0=
EXTT1=
EXTT2=
EXTT3=
EXTT4=
EXTT5=
EXTT6=
EXTT7=
EXTT8=
EXTT9=
EXTT10=
EXTT11=
EXTT12=
EXTT13=
EXTT14=
EXTT15=
EXTT16=
PLAYORDER=
